<mxfile host="app.diagrams.net" agent="Mozilla/5.0 (X11; Ubuntu; Linux x86_64; rv:135.0) Gecko/20100101 Firefox/135.0" version="26.0.15">
  <diagram name="Page-1" id="TuVlbN-ZKWJk66FvhOgv">
    <mxGraphModel dx="1346" dy="1631" grid="1" gridSize="10" guides="1" tooltips="1" connect="1" arrows="1" fold="1" page="1" pageScale="1" pageWidth="1100" pageHeight="850" math="0" shadow="0">
      <root>
        <mxCell id="0" />
        <mxCell id="1" parent="0" />
        <mxCell id="vZPkmDc1HkCrlw_ce-yA-17" value="" style="group;fillColor=#fff2cc;strokeColor=#d6b656;rounded=1;glass=1;shadow=0;" parent="1" vertex="1" connectable="0">
          <mxGeometry x="100" y="-800" width="660" height="770" as="geometry" />
        </mxCell>
        <mxCell id="vZPkmDc1HkCrlw_ce-yA-3" value="" style="edgeStyle=orthogonalEdgeStyle;rounded=0;orthogonalLoop=1;jettySize=auto;html=1;entryX=0.5;entryY=0;entryDx=0;entryDy=0;" parent="vZPkmDc1HkCrlw_ce-yA-17" source="vZPkmDc1HkCrlw_ce-yA-1" target="vZPkmDc1HkCrlw_ce-yA-15" edge="1">
          <mxGeometry relative="1" as="geometry">
            <mxPoint x="518.5714285714286" y="476.66666666666686" as="targetPoint" />
          </mxGeometry>
        </mxCell>
        <mxCell id="vZPkmDc1HkCrlw_ce-yA-1" value="Indulging in the conditioned phenomena of tanha (i.e. thirst/craving) perpetuates depenedence on (i.e. clinging to) the collection of conditioned pheonomena that are the 5 aggregates to provide satisfaction, forming self-identity in the process. There is no self-identity formation without the dependence. &lt;span style=&quot;color: rgb(204, 0, 0);&quot;&gt;(paticcasamuppada; 2nd Noble Truth)&lt;/span&gt;" style="rounded=1;whiteSpace=wrap;html=1;align=left;fillColor=light-dark(#E6FFCC,var(--ge-dark-color, #121212));glass=1;dashed=1;dashPattern=12 12;strokeColor=none;" parent="vZPkmDc1HkCrlw_ce-yA-17" vertex="1">
          <mxGeometry x="23.57" y="30.8" width="306.43" height="119.2" as="geometry" />
        </mxCell>
        <mxCell id="dFAU1SVFYO0GLhLQqhiY-3" value="" style="edgeStyle=orthogonalEdgeStyle;rounded=0;orthogonalLoop=1;jettySize=auto;html=1;" edge="1" parent="vZPkmDc1HkCrlw_ce-yA-17" source="vZPkmDc1HkCrlw_ce-yA-15" target="dFAU1SVFYO0GLhLQqhiY-1">
          <mxGeometry relative="1" as="geometry" />
        </mxCell>
        <mxCell id="vZPkmDc1HkCrlw_ce-yA-15" value="As self-identity merely hinges on dependence (i.e. clinging), the 5 aggregates are not-self (anatta&lt;sup&gt;1&lt;/sup&gt;). The dependence on/clinging to them results in unsatisfactoriness (dukkha) because they unreliable in providing satisfaction. &lt;span style=&quot;color: rgb(204, 0, 0);&quot;&gt;(1st Noble Truth)&lt;/span&gt;" style="whiteSpace=wrap;html=1;rounded=1;fillColor=light-dark(#E6FFCC,#000000);strokeColor=none;gradientColor=none;glass=1;dashed=1;dashPattern=8 8;align=left;" parent="vZPkmDc1HkCrlw_ce-yA-17" vertex="1">
          <mxGeometry x="25.17" y="200" width="303.22" height="90" as="geometry" />
        </mxCell>
        <mxCell id="dFAU1SVFYO0GLhLQqhiY-6" value="" style="edgeStyle=orthogonalEdgeStyle;rounded=0;orthogonalLoop=1;jettySize=auto;html=1;" edge="1" parent="vZPkmDc1HkCrlw_ce-yA-17" source="dFAU1SVFYO0GLhLQqhiY-1" target="dFAU1SVFYO0GLhLQqhiY-4">
          <mxGeometry relative="1" as="geometry" />
        </mxCell>
        <mxCell id="dFAU1SVFYO0GLhLQqhiY-1" value="To reduce/eliminate dukkha, the dependence on (i.e. clinging to) such conditioned phenomena (i.e. the 5 aggregates) needs to be reduced/eliminated, and in order to reduce/eliminate the dependence, the conditioned phenomena of tanha needs to be reduced/eliminated. &lt;span style=&quot;color: rgb(204, 0, 0);&quot;&gt;(&lt;/span&gt;&lt;span style=&quot;color: rgb(204, 0, 0);&quot;&gt;paticcasamuppada; &lt;/span&gt;&lt;span style=&quot;color: rgb(204, 0, 0);&quot;&gt;3rd Noble Truth)&lt;/span&gt;" style="whiteSpace=wrap;html=1;rounded=1;fillColor=light-dark(#E6FFCC,#000000);strokeColor=none;gradientColor=none;glass=1;dashed=1;dashPattern=8 8;align=left;" vertex="1" parent="vZPkmDc1HkCrlw_ce-yA-17">
          <mxGeometry x="25.17" y="340" width="303.22" height="100" as="geometry" />
        </mxCell>
        <mxCell id="dFAU1SVFYO0GLhLQqhiY-4" value="To reduce/eliminate the conditioned phenomena of tanha, instead of indulging it, one has to let go of it or in other words, rest in awareness in the present (i.e. sati). &amp;nbsp;&lt;br&gt;Whenever one indulges in tanha, one is no longer letting go of it, resting in awareness in the present (i.e. sati), and adopting the Middle Way. &lt;span style=&quot;color: rgb(204, 0, 0);&quot;&gt;(4th Noble Truth)&lt;/span&gt;" style="whiteSpace=wrap;html=1;rounded=1;fillColor=light-dark(#E6FFCC,#000000);strokeColor=none;gradientColor=none;glass=1;dashed=1;dashPattern=8 8;align=left;" vertex="1" parent="vZPkmDc1HkCrlw_ce-yA-17">
          <mxGeometry x="25.17000000000001" y="500" width="303.22" height="100" as="geometry" />
        </mxCell>
      </root>
    </mxGraphModel>
  </diagram>
</mxfile>
